<svg width="31" height="41" viewBox="0 0 31 41" fill="none" xmlns="http://www.w3.org/2000/svg">
<path fill-rule="evenodd" clip-rule="evenodd" d="M22.7614 1.97997C25.2619 3.18988 26.6667 4.83087 26.6667 6.54194H13.3333L0 6.54194C0 4.83087 1.40476 3.18988 3.90524 1.97997C6.40573 0.770053 9.79711 0.090332 13.3333 0.090332C16.8696 0.090332 20.2609 0.770054 22.7614 1.97997ZM3.90524 38.2007C1.40476 36.9908 0 35.3498 0 33.6387H13.3333L26.6667 33.6387C26.6667 35.3498 25.2619 36.9908 22.7614 38.2007C20.2609 39.4106 16.8696 40.0903 13.3333 40.0903C9.79711 40.0903 6.40573 39.4106 3.90524 38.2007ZM30.6667 23.3161V28.4774H22.6667V23.3161H30.6667ZM8 11.7033H0V16.8646H8V11.7033ZM14.6667 11.7033H30.6667V16.8646H14.6667V11.7033ZM16 23.3161H0V28.4774H16V23.3161Z" fill="#191A15"/>
</svg>
