<svg width="23" height="19" viewBox="0 0 23 19" fill="none" xmlns="http://www.w3.org/2000/svg">
<path d="M7 6.96533C6.13706 6.96533 5.4375 7.66489 5.4375 8.52783C5.4375 9.39078 6.13706 10.0903 7 10.0903C7.86294 10.0903 8.5625 9.39078 8.5625 8.52783C8.5625 7.66489 7.86294 6.96533 7 6.96533Z" fill="#54BD95"/>
<path d="M12 6.96533C11.1371 6.96533 10.4375 7.66489 10.4375 8.52783C10.4375 9.39078 11.1371 10.0903 12 10.0903C12.8629 10.0903 13.5625 9.39078 13.5625 8.52783C13.5625 7.66489 12.8629 6.96533 12 6.96533Z" fill="#54BD95"/>
<path d="M15.4375 8.52783C15.4375 7.66489 16.1371 6.96533 17 6.96533C17.8629 6.96533 18.5625 7.66489 18.5625 8.52783C18.5625 9.39078 17.8629 10.0903 17 10.0903C16.1371 10.0903 15.4375 9.39078 15.4375 8.52783Z" fill="#54BD95"/>
<path fill-rule="evenodd" clip-rule="evenodd" d="M17.1259 0.831323C13.7582 0.544123 10.3728 0.527456 7.00243 0.781481L6.76089 0.799686C3.54676 1.04193 1.0625 3.72047 1.0625 6.94372V17.5903C1.0625 17.9202 1.23583 18.2257 1.51894 18.395C1.80204 18.5643 2.15326 18.5723 2.4438 18.4161L7.33229 15.789C7.55968 15.6668 7.8138 15.6028 8.07195 15.6028H19.2925C20.7076 15.6028 21.9203 14.5911 22.174 13.1989C22.6881 10.3774 22.7287 7.4899 22.2941 4.65502L22.1661 3.81961C21.933 2.29868 20.6887 1.13516 19.1556 1.00441L17.1259 0.831323ZM7.14335 2.65118C10.4138 2.40469 13.6987 2.42086 16.9666 2.69954L18.9963 2.87263C19.6667 2.92981 20.2108 3.4386 20.3127 4.1037L20.4408 4.93911C20.8438 7.56821 20.8061 10.2461 20.3293 12.8628C20.2381 13.3638 19.8017 13.7278 19.2925 13.7278H8.07195C7.50403 13.7278 6.94495 13.8685 6.44469 14.1374L2.9375 16.0222V6.94372C2.9375 4.70134 4.66577 2.83791 6.90181 2.66938L7.14335 2.65118Z" fill="#54BD95"/>
<path d="M7 6.96533C6.13706 6.96533 5.4375 7.66489 5.4375 8.52783C5.4375 9.39078 6.13706 10.0903 7 10.0903C7.86294 10.0903 8.5625 9.39078 8.5625 8.52783C8.5625 7.66489 7.86294 6.96533 7 6.96533Z" stroke="#54BD95" stroke-width="0.5" stroke-linejoin="round"/>
<path d="M12 6.96533C11.1371 6.96533 10.4375 7.66489 10.4375 8.52783C10.4375 9.39078 11.1371 10.0903 12 10.0903C12.8629 10.0903 13.5625 9.39078 13.5625 8.52783C13.5625 7.66489 12.8629 6.96533 12 6.96533Z" stroke="#54BD95" stroke-width="0.5" stroke-linejoin="round"/>
<path d="M15.4375 8.52783C15.4375 7.66489 16.1371 6.96533 17 6.96533C17.8629 6.96533 18.5625 7.66489 18.5625 8.52783C18.5625 9.39078 17.8629 10.0903 17 10.0903C16.1371 10.0903 15.4375 9.39078 15.4375 8.52783Z" stroke="#54BD95" stroke-width="0.5" stroke-linejoin="round"/>
<path fill-rule="evenodd" clip-rule="evenodd" d="M17.1259 0.831323C13.7582 0.544123 10.3728 0.527456 7.00243 0.781481L6.76089 0.799686C3.54676 1.04193 1.0625 3.72047 1.0625 6.94372V17.5903C1.0625 17.9202 1.23583 18.2257 1.51894 18.395C1.80204 18.5643 2.15326 18.5723 2.4438 18.4161L7.33229 15.789C7.55968 15.6668 7.8138 15.6028 8.07195 15.6028H19.2925C20.7076 15.6028 21.9203 14.5911 22.174 13.1989C22.6881 10.3774 22.7287 7.4899 22.2941 4.65502L22.1661 3.81961C21.933 2.29868 20.6887 1.13516 19.1556 1.00441L17.1259 0.831323ZM7.14335 2.65118C10.4138 2.40469 13.6987 2.42086 16.9666 2.69954L18.9963 2.87263C19.6667 2.92981 20.2108 3.4386 20.3127 4.1037L20.4408 4.93911C20.8438 7.56821 20.8061 10.2461 20.3293 12.8628C20.2381 13.3638 19.8017 13.7278 19.2925 13.7278H8.07195C7.50403 13.7278 6.94495 13.8685 6.44469 14.1374L2.9375 16.0222V6.94372C2.9375 4.70134 4.66577 2.83791 6.90181 2.66938L7.14335 2.65118Z" stroke="#54BD95" stroke-width="0.5" stroke-linejoin="round"/>
</svg>
