<svg width="24" height="25" viewBox="0 0 24 25" fill="none" xmlns="http://www.w3.org/2000/svg">
<path d="M10.3125 4.32574C10.3125 4.25498 10.2825 4.18755 10.23 4.14014C10.1775 4.09274 10.1073 4.06981 10.0369 4.07705C5.34617 4.55914 1.6875 8.52231 1.6875 13.3403C1.6875 18.4835 5.85685 22.6528 11 22.6528C15.818 22.6528 19.7812 18.9942 20.2633 14.3034C20.2705 14.233 20.2476 14.1629 20.2002 14.1103C20.1528 14.0578 20.0853 14.0278 20.0146 14.0278H11C10.6203 14.0278 10.3125 13.72 10.3125 13.3403V4.32574ZM11.6875 12.4028C11.6875 12.5409 11.7994 12.6528 11.9375 12.6528H21C21.3797 12.6528 21.6875 12.9606 21.6875 13.3403C21.6875 19.2429 16.9025 24.0278 11 24.0278C5.09746 24.0278 0.3125 19.2429 0.3125 13.3403C0.3125 7.43779 5.09746 2.65283 11 2.65283C11.3797 2.65283 11.6875 2.96064 11.6875 3.34033V12.4028ZM15.4325 2.68908C15.3581 2.67152 15.2798 2.68893 15.2199 2.73635C15.1599 2.78376 15.125 2.85598 15.125 2.93239V8.96533C15.125 9.1034 15.2369 9.21533 15.375 9.21533H21.4079C21.4844 9.21533 21.5566 9.18039 21.604 9.12047C21.6514 9.06056 21.6688 8.98224 21.6513 8.90788C20.9257 5.83523 18.5051 3.41462 15.4325 2.68908ZM14.7166 1.16548C19.1284 1.7145 22.6258 5.21189 23.1749 9.62369C23.239 10.1388 22.8118 10.5903 22.25 10.5903H14.125C13.9179 10.5903 13.75 10.4224 13.75 10.2153V2.09033C13.75 1.52854 14.2015 1.10137 14.7166 1.16548Z" fill="#54BD95" stroke="#54BD95" stroke-width="0.5" stroke-linejoin="round"/>
</svg>
