<svg width="21" height="25" viewBox="0 0 21 25" fill="none" xmlns="http://www.w3.org/2000/svg">
<path fill-rule="evenodd" clip-rule="evenodd" d="M1.06847 2.74524C0.944437 1.25594 2.61304 0.432519 3.75843 1.19768L4.12894 1.44519C9.77844 5.21924 15.0658 9.4784 19.9267 14.1712C21.1377 15.3402 20.0698 17.1852 18.5588 17.0234L11.9759 16.3184C11.3056 16.2466 10.688 16.6069 10.4336 17.1682L7.77285 23.0394C7.13023 24.4574 5.0135 24.3256 4.59232 22.7957C2.82386 16.3718 1.65657 9.80656 1.10465 3.1796L1.06847 2.74524ZM2.96471 2.92234L2.97318 3.02398C3.50165 9.36948 4.60441 15.6577 6.26864 21.8162L8.72582 16.3942C9.32637 15.069 10.7306 14.2993 12.1755 14.454L18.1843 15.0975C13.5257 10.6495 8.47431 6.60293 3.0874 3.0043L2.96471 2.92234Z" fill="#54BD95" stroke="#54BD95" stroke-width="0.5"/>
</svg>
